# xmcd
#
# Track frame offsets: 
#        150
#        10789
#        24146
#        33870
#        47475
#        58319
#        71076
#        83106
#        93669
#        105607
#        117798
#        129422
#        142285
#        155794
#        166699
#        177225
#        191081
#        204945
#        215292
#        225610
#        238358
#        252137
#        266521
#        278646
#        290343
#        303959
#        315776
#        328151
#
# Disc length: 4519 seconds
#
# Revision: 2
# Processed by: cddbd v1.5.2PL0 Copyright (c) Steve Scherf et al.
# Submitted via: ExactAudioCopyFreeDBPlugin 1.0
#
DISCID=8511a51c
DTITLE=Various Artist - The R&B Hits Of 1955: Red Hot Rockin' Rhythm 
DTITLE=& Blues
DYEAR=1955
DGENRE=R&B
TTITLE0=Chuck Berry - Maybellene
TTITLE1=Little Willie John - All Around The World
TTITLE2=Otis Williams' New Group - That's Your Mistake
TTITLE3=Champion Jack Dupree with Mr. Bear - Walking The Blues
TTITLE4=Etta James - Good Rockin' Daddy
TTITLE5=Howlin' Wolf - Forty Four
TTITLE6=The Hearts - Lonely Nights
TTITLE7=Fats Domino - All By Myself
TTITLE8=Louis Brooks and His Hi-Toppers - It's Love Baby
TTITLE9=The Drifters - Adorable
TTITLE10=Sonny Boy Williamson - Don't Start Me Talkin'
TTITLE11=Ray Charles - I've Got A Woman
TTITLE12=The Clovers - Nip Sip
TTITLE13=Little Richard - Tutti Frutti
TTITLE14=The Nutmegs - A Story Untold
TTITLE15=Lavern Baker - Bop-Ting-A-Ling
TTITLE16=The Moonglows - Most Of All
TTITLE17=Gene and Eunice - This Is My Story
TTITLE18=Little Willie John - Need Your Love So Bad
TTITLE19=The Jacks - Why Don't You Write Me
TTITLE20=Screamin' Jay Hawkins - (She Put The) Whamee On Me
TTITLE21=Elmore James - Dust My Blues
TTITLE22=The 5 Royales - I Ain't Getting Caught
TTITLE23=Ernie Freeman - Jivin' Around (part1)
TTITLE24=Roy Hamilton - Unchained Melody
TTITLE25=The Spiders - Witchcraft
TTITLE26=Buddy Johnson - Upside Your Head
TTITLE27=J.B. Lenoir - Mama Talk To Your Daughter
EXTD=YEAR: 1950
EXTT0=
EXTT1=
EXTT2=
EXTT3=
EXTT4=
EXTT5=
EXTT6=
EXTT7=
EXTT8=
EXTT9=
EXTT10=
EXTT11=
EXTT12=
EXTT13=
EXTT14=
EXTT15=
EXTT16=
EXTT17=
EXTT18=
EXTT19=
EXTT20=
EXTT21=
EXTT22=
EXTT23=
EXTT24=
EXTT25=
EXTT26=
EXTT27=
PLAYORDER=
